<svg width="1200" height="672" viewBox="0 0 1200 672" fill="none" xmlns="http://www.w3.org/2000/svg">
<g filter="url(#filter0_i_39_4)">
<path d="M131.05 400V317.5H141.792L224.668 387.271H224.775V317.5H235.088V400H224.346L141.47 329.639H141.362V400H131.05ZM255.767 400V317.5H336.763V326.094H266.079V353.594H333.809V362.188H266.079V391.406H338.267V400H255.767ZM388.916 401.719C380.859 401.719 374.235 401.164 369.043 400.054C363.851 398.979 359.787 396.974 356.851 394.038C353.95 391.102 351.909 386.877 350.728 381.362C349.582 375.848 349.009 368.669 349.009 359.824V317.5H359.321V359.824C359.321 365.911 359.536 370.96 359.966 374.971C360.396 378.981 361.201 382.186 362.383 384.585C363.564 386.984 365.247 388.774 367.432 389.956C369.652 391.138 372.516 391.908 376.025 392.266C379.535 392.624 383.831 392.803 388.916 392.803H408.359C413.48 392.803 417.777 392.624 421.25 392.266C424.759 391.908 427.606 391.138 429.79 389.956C432.01 388.774 433.711 386.984 434.893 384.585C436.074 382.186 436.88 378.981 437.31 374.971C437.739 370.96 437.954 365.911 437.954 359.824V317.5H448.267V359.824C448.267 368.669 447.676 375.848 446.494 381.362C445.348 386.877 443.307 391.102 440.371 394.038C437.471 396.974 433.424 398.979 428.232 400.054C423.04 401.164 416.416 401.719 408.359 401.719H388.916ZM501.87 400V326.094H460.62V317.5H553.433V326.094H512.183V400H501.87ZM569.009 317.5H624.224C632.28 317.5 638.761 317.858 643.667 318.574C648.608 319.29 652.35 320.526 654.893 322.28C657.435 324.035 659.154 326.434 660.049 329.478C660.944 332.521 661.392 336.37 661.392 341.025V343.174C661.392 347.471 660.872 351.177 659.834 354.292C658.831 357.371 656.88 359.878 653.979 361.812C651.079 363.709 646.782 365.052 641.089 365.84L659.028 400H648.716L631.152 366.592C630.436 366.628 629.684 366.646 628.896 366.646C628.145 366.646 627.357 366.646 626.533 366.646H579.321V400H569.009V317.5ZM579.321 357.729H624.922C631.045 357.729 635.861 357.533 639.37 357.139C642.915 356.709 645.511 355.975 647.158 354.937C648.841 353.898 649.915 352.43 650.381 350.532C650.846 348.634 651.079 346.182 651.079 343.174V341.025C651.079 337.624 650.757 334.938 650.112 332.969C649.468 330.999 648.179 329.549 646.245 328.618C644.312 327.687 641.429 327.096 637.598 326.846C633.766 326.559 628.646 326.416 622.236 326.416H579.321V357.729ZM674.067 400L722.192 317.5H735.942L784.067 400H772.036L761.724 381.094H696.411L686.099 400H674.067ZM701.567 372.5H756.567L729.067 324.375L701.567 372.5ZM794.38 400V389.688H804.692V400H794.38Z" fill="url(#paint0_linear_39_4)"/>
<path d="M822.095 400V317.5H837.456L887.354 384.8L936.499 317.5H951.86V400H941.548V326.846L892.295 394.575H882.949L832.407 326.846V400H822.095ZM965.825 400L1012.71 356.494L969.263 317.5H983.872L1019.86 349.834L1054.72 317.5H1069.33L1027.32 356.494L1075.83 400H1061.22L1020.13 363.154L980.435 400H965.825Z" fill="#D7D7D7"/>
</g>
<defs>
<filter id="filter0_i_39_4" x="131.05" y="317.5" width="944.775" height="88.2188" filterUnits="userSpaceOnUse" color-interpolation-filters="sRGB">
<feFlood flood-opacity="0" result="BackgroundImageFix"/>
<feBlend mode="normal" in="SourceGraphic" in2="BackgroundImageFix" result="shape"/>
<feColorMatrix in="SourceAlpha" type="matrix" values="0 0 0 0 0 0 0 0 0 0 0 0 0 0 0 0 0 0 127 0" result="hardAlpha"/>
<feOffset dy="4"/>
<feGaussianBlur stdDeviation="2"/>
<feComposite in2="hardAlpha" operator="arithmetic" k2="-1" k3="1"/>
<feColorMatrix type="matrix" values="0 0 0 0 0 0 0 0 0 0 0 0 0 0 0 0 0 0 0.25 0"/>
<feBlend mode="normal" in2="shape" result="effect1_innerShadow_39_4"/>
</filter>
<linearGradient id="paint0_linear_39_4" x1="95" y1="351.5" x2="1105" y2="351.5" gradientUnits="userSpaceOnUse">
<stop stop-color="#D7D7D7"/>
<stop offset="1" stop-color="#D5D5D5"/>
</linearGradient>
</defs>
</svg>
